<svg width="183" height="156" viewBox="0 0 183 156" fill="none" xmlns="http://www.w3.org/2000/svg">
<rect x="12.3379" y="104.684" width="155.584" height="45.1579" fill="#212226"/>
<rect x="6.16797" y="104.684" width="1.37079" height="45.1579" fill="#212226"/>
<rect x="42.4941" y="15.0527" width="1.37079" height="55.4211" fill="#212226"/>
<rect x="139.135" y="15.0527" width="1.37079" height="55.4211" fill="#212226"/>
<path d="M6.16895 100.579V102.632H2.05664V106.737H1.37109V149.842H2.05664V153.947H6.16895V156H0V100.579H6.16895Z" fill="#212226"/>
<path d="M50.6973 0V4.55469H41.5732V13.6621H40.0537V74.3809H41.5732V83.4893H50.6973V88.043H37.0117V0H50.6973Z" fill="#212226"/>
<path d="M176.831 100.579V102.632H180.943V106.737H181.629V149.842H180.943V153.947H176.831V156H183V100.579H176.831Z" fill="#212226"/>
<path d="M132.303 0V4.55469H141.427V13.6621H142.946V74.3809H141.427V83.4893H132.303V88.043H145.988V0H132.303Z" fill="#212226"/>
<rect x="8.91016" y="104.684" width="2.05618" height="45.1579" fill="#212226"/>
<rect x="44.5508" y="15.0527" width="2.05618" height="55.4211" fill="#212226"/>
<rect x="174.775" y="104.684" width="2.05618" height="45.1579" fill="#212226"/>
<rect x="169.977" y="104.684" width="3.42697" height="45.1579" fill="#212226"/>
<path d="M61.832 123.664V112.21H63.696L67.2278 118.396L70.7596 112.21H72.6236V123.664H71.1847V114.01L67.7184 120.065H66.7373L63.2709 114.01V123.664H61.832Z" fill="white"/>
<path d="M74.5084 122.192V115.974L75.98 114.501H81.0488L82.5204 115.974V122.192L81.0488 123.664H75.98L74.5084 122.192ZM75.98 122.355H81.0488V115.81H75.98V122.355Z" fill="white"/>
<path d="M84.0837 125.955V124.646H88.3513L89.0543 122.355H86.2583L83.5932 114.501H85.0811L87.3048 121.046H89.4468L91.556 114.501H93.044L89.3814 125.955H84.0837Z" fill="white"/>
<path d="M101.229 114.501V122.355H105.317V114.501H106.789V123.664H94.1985V114.501H95.6701V122.355H99.7578V114.501H101.229Z" fill="white"/>
<path d="M108.745 123.664V114.501H110.217V118.428H115.449V114.501H116.92V123.664H115.449V119.737H110.217V123.664H108.745Z" fill="white"/>
<path d="M52.6621 143V141.691H58.712V139.4H53.5614L52.0898 137.927V133.019L53.7249 131.546H60.1835V141.462L58.6466 143H52.6621ZM53.5614 132.855V138.091H58.712V132.855H53.5614Z" fill="white"/>
<path d="M70.8174 140.709H69.3458V133.068L64.0808 140.709H62.1514V131.546H63.623V139.187L68.888 131.546H70.8174V140.709Z" fill="white"/>
<path d="M80.5525 139.4L79.2445 140.709H72.3771V139.4H79.0809V136.684H73.1946V135.375H78.7539V132.855H72.5406V131.546H78.9174L80.2255 132.855V135.228L79.2935 135.931L80.5525 136.913V139.4Z" fill="white"/>
<path d="M82.2668 139.236V135.473L88.8072 135.309V132.855H82.5938V131.546H88.8072L90.2787 133.019V140.709H83.7384L82.2668 139.236ZM83.7384 136.782V139.4H88.8072V136.455L83.7384 136.782Z" fill="white"/>
<path d="M100.9 140.709H99.4289V133.068L94.1639 140.709H92.2345V131.546H93.706V139.187L98.971 131.546H100.9V140.709ZM98.3333 128.437H99.8376L98.6931 130.401H94.4418L93.2973 128.437H94.8016L95.3411 129.337H97.7938L98.3333 128.437Z" fill="white"/>
<path d="M102.869 140.709V131.546H104.341V135.473H109.573V131.546H111.044V140.709H109.573V136.782H104.341V140.709H102.869Z" fill="white"/>
<path d="M112.927 139.236V133.019L114.398 131.546H120.775V136.618H114.398V139.4H120.448V140.709H114.398L112.927 139.236ZM114.398 135.473L119.369 135.309V132.855H114.398V135.473Z" fill="white"/>
<path d="M122.653 143V131.546H129.438L130.91 133.019V139.236L129.438 140.709H124.124V143H122.653ZM129.438 132.855H124.124V139.4H129.438V132.855Z" fill="white"/>
<path d="M89.2539 84.6941C89.3376 84.6941 89.4277 84.6941 89.5114 84.6877C89.4599 84.6877 89.402 84.6941 89.3505 84.6941H89.2539Z" fill="#212226"/>
<path d="M89.2539 84.6941C89.3376 84.6941 89.4277 84.6941 89.5114 84.6877C89.4599 84.6877 89.402 84.6941 89.3505 84.6941H89.2539Z" fill="#212226"/>
<path d="M129.308 48.6736V48.6928C129.269 49.0057 129.224 49.3186 129.179 49.6315C129.134 49.9444 129.083 50.2636 129.031 50.5765C128.986 50.8255 128.941 51.0746 128.896 51.3172C127.435 58.9798 123.836 65.8505 118.762 71.3356L115.672 68.5324C120.745 63.0218 124.157 55.9722 125.104 48.1692L129.308 48.6736Z" fill="#212226"/>
<path d="M89.2539 84.6941C89.3376 84.6941 89.4277 84.6941 89.5114 84.6877C89.4599 84.6877 89.402 84.6941 89.3505 84.6941H89.2539Z" fill="#212226"/>
<path d="M116.025 13.3431L113.186 16.4528L109.755 20.2074C104.083 15.0991 96.5498 11.9957 88.2831 11.9957C84.6712 11.9957 81.2074 12.5896 77.969 13.6815L76.3272 8.8924L74.9688 4.94619C77.5505 4.06499 80.2481 3.42644 83.023 3.06886C84.7485 2.85175 86.5061 2.73682 88.2831 2.73682C88.605 2.73682 88.9204 2.7432 89.2424 2.74959C89.5643 2.75597 89.8797 2.76874 90.2017 2.78151C90.5171 2.79429 90.839 2.81344 91.1545 2.83899C91.47 2.85814 91.7919 2.88368 92.1074 2.91561C92.4229 2.94115 92.7383 2.97308 93.0538 3.01139C93.3693 3.0497 93.6848 3.08802 94.0002 3.13272C98.7066 3.78403 103.258 5.23353 107.456 7.41097C107.733 7.55784 108.016 7.7047 108.287 7.85795C108.564 8.01121 108.84 8.16446 109.111 8.3241C109.388 8.48373 109.658 8.64337 109.928 8.80939C110.199 8.96903 110.463 9.14144 110.733 9.30746C110.997 9.47986 111.261 9.65227 111.525 9.83106C111.783 10.0035 112.047 10.1886 112.304 10.3674C112.806 10.7314 113.309 11.1018 113.798 11.4785C114.558 12.0724 115.304 12.6918 116.025 13.3431Z" fill="#212226"/>
<path d="M91.8812 84.3878C91.8168 84.4006 91.746 84.407 91.6881 84.407C91.1794 84.4517 90.6708 84.4836 90.1622 84.5027C90.0528 84.5091 89.9433 84.5155 89.8339 84.5155C89.7244 84.5219 89.6214 84.5283 89.5119 84.5283C89.4282 84.5347 89.3381 84.5347 89.2544 84.5347C88.9325 84.5411 88.6041 84.5474 88.2822 84.5474C87.3937 84.5474 86.5053 84.5219 85.6232 84.458C85.3271 84.4453 85.0309 84.4197 84.7412 84.3942C84.5931 84.3814 84.445 84.3687 84.3034 84.3559C83.9042 84.3176 83.5115 84.2729 83.1187 84.2218C83.0994 84.2218 83.0866 84.2218 83.0672 84.2154C82.6681 84.1707 82.2753 84.1132 81.8826 84.0494C81.7603 84.0302 81.6379 84.0111 81.5221 83.9919C81.3869 83.9664 81.2517 83.9472 81.1229 83.9217C81.0843 83.9217 81.0456 83.9153 81.007 83.9025C80.6658 83.845 80.331 83.7748 79.9962 83.7109C79.5069 83.6088 79.0176 83.5002 78.5283 83.3789C71.6329 81.6995 65.3942 78.2833 60.3145 73.6155L63.128 70.5952C69.7336 76.6422 78.5733 80.3458 88.2822 80.3458C89.3703 80.3458 90.4519 80.3011 91.5142 80.2053L91.8812 84.3878Z" fill="#212226"/>
<path d="M91.8826 84.5474C91.8182 84.5601 91.7538 84.5665 91.6895 84.5665C91.7474 84.5665 91.8182 84.5601 91.8826 84.5474Z" fill="#212226"/>
<path d="M94.9065 45.2829C94.9065 46.0938 94.6619 46.8473 94.2434 47.4731C94.1146 47.671 93.9666 47.8626 93.7927 48.035C93.0974 48.7821 92.0995 49.261 90.9856 49.2929C90.9406 49.2993 90.8955 49.2993 90.8504 49.2993C90.6058 49.2993 90.3676 49.2801 90.1358 49.2291C89.4984 49.1205 88.9125 48.8587 88.4168 48.4883C87.9983 48.1755 87.6442 47.786 87.3738 47.339C87.3352 47.2815 87.2965 47.2176 87.2708 47.1538C86.9682 46.5983 86.8008 45.9597 86.8008 45.2829C86.8008 45.1807 86.8072 45.0849 86.8137 44.9891C86.8458 44.4783 86.9811 43.9994 87.1935 43.5588C87.5927 42.7159 88.288 42.0326 89.1379 41.6367C89.2859 41.5665 89.4405 41.5027 89.6014 41.4516C89.9942 41.3303 90.4191 41.26 90.8504 41.26C91.8677 41.26 92.7948 41.6304 93.5094 42.2498C94.2048 42.8436 94.6941 43.6737 94.8486 44.6124C94.8872 44.8295 94.9065 45.053 94.9065 45.2829Z" fill="#212226"/>
<path d="M97.5082 24.7092C97.0382 24.556 96.5682 24.4219 96.0918 24.3005C96.5747 24.4155 97.0447 24.5496 97.5082 24.7092Z" fill="#212226"/>
<path d="M88.6061 74.1774C88.4902 74.1647 88.3678 74.1583 88.252 74.1455C88.3163 74.1519 88.3743 74.1583 88.4387 74.1583C88.4902 74.1647 88.5545 74.1711 88.6061 74.1774Z" fill="#212226"/>
<path d="M91.9918 74.2349C91.9918 74.2349 91.9531 74.2412 91.9274 74.2412C91.8888 74.2412 91.8566 74.2412 91.8179 74.2412H91.6055C91.6763 74.2412 91.7471 74.2412 91.8179 74.2412C91.8759 74.2412 91.9338 74.2412 91.9918 74.2349Z" fill="#212226"/>
<path d="M87.3359 74.0496C87.2071 74.0368 87.0783 74.0177 86.956 74.0049C86.9431 74.0049 86.9367 74.0049 86.9238 73.9985C87.059 74.0177 87.2007 74.0368 87.3359 74.0496Z" fill="#212226"/>
<path d="M87.3359 74.0496C87.5162 74.0687 87.7029 74.0943 87.8832 74.107C87.7931 74.1007 87.6965 74.0943 87.5999 74.0815C87.5098 74.0687 87.4261 74.0623 87.3359 74.0496Z" fill="#212226"/>
<path d="M94.7149 74.0049C94.7149 74.0049 94.6891 74.0049 94.6827 74.0177C94.6441 74.0177 94.6119 74.0241 94.5733 74.0305C94.3801 74.0496 94.1934 74.0752 94.0002 74.0943C93.9487 74.1007 93.8908 74.1071 93.8393 74.1135C93.7942 74.1199 93.7556 74.1199 93.7105 74.1262C93.6783 74.1262 93.6461 74.1262 93.614 74.1262C93.5818 74.1326 93.556 74.1326 93.5303 74.1326C93.3886 74.1454 93.247 74.1582 93.1053 74.1709C93.0023 74.1773 92.8993 74.1837 92.8027 74.1901C92.9057 74.1837 93.0023 74.1773 93.1053 74.1646C93.1826 74.1646 93.2534 74.1646 93.3307 74.1454C93.4852 74.139 93.6333 74.1199 93.7813 74.1071C93.7942 74.1071 93.8071 74.1071 93.82 74.1007H93.8522C93.9681 74.0879 94.0775 74.0752 94.187 74.0624C94.2964 74.056 94.4123 74.0432 94.5217 74.0241C94.5217 74.0241 94.5411 74.0177 94.5539 74.0177C94.6054 74.0113 94.6634 74.0049 94.7149 73.9985V74.0049Z" fill="#212226"/>
<path d="M96.0618 73.7944C96.0618 73.7944 96.0355 73.801 96.0224 73.8075H95.9961C95.9961 73.8075 96.0421 73.7944 96.0618 73.7944Z" fill="#212226"/>
<path d="M96.5887 73.6919C96.4986 73.7111 96.4084 73.7302 96.3183 73.7494C96.2861 73.7558 96.2539 73.7621 96.2153 73.7685C96.1702 73.7749 96.1251 73.7813 96.0801 73.7941C96.0801 73.7941 96.0865 73.7877 96.093 73.7877C96.2604 73.7558 96.4277 73.7238 96.5887 73.6919Z" fill="#212226"/>
<path d="M98.5503 73.2259C98.5503 73.2259 98.5696 73.2259 98.5825 73.2195C98.531 73.2386 98.4795 73.2578 98.428 73.2642C98.3572 73.2833 98.2864 73.3025 98.2155 73.3216C98.1705 73.3344 98.1318 73.3472 98.0868 73.36C97.9773 73.3855 97.8679 73.411 97.7584 73.4366C97.7069 73.4494 97.649 73.4621 97.5975 73.4749C97.5717 73.4813 97.5395 73.4877 97.5138 73.4941C97.4945 73.5004 97.4816 73.5004 97.4623 73.5068C97.4365 73.5132 97.4108 73.5196 97.385 73.526C97.2756 73.5515 97.1725 73.5707 97.0631 73.5962C96.973 73.6154 96.8828 73.6345 96.7927 73.6537C96.7605 73.6601 96.7347 73.6665 96.709 73.6665C96.9472 73.6218 97.179 73.5643 97.4172 73.5132C97.649 73.4557 97.8872 73.3983 98.119 73.3408C98.2606 73.3025 98.4087 73.2642 98.5503 73.2259Z" fill="#212226"/>
<path d="M99.2478 73.0281C99.1512 73.06 99.0546 73.0919 98.9516 73.1239C98.9323 73.1239 98.913 73.1239 98.9001 73.1366C98.8679 73.143 98.8422 73.1494 98.8164 73.1558C98.9645 73.1111 99.1061 73.0728 99.2478 73.0281Z" fill="#212226"/>
<path d="M61.929 41.1962C61.9033 41.3303 61.884 41.4708 61.8711 41.6113C61.884 41.4516 61.9097 41.2856 61.9355 41.126C61.9355 41.0877 61.9419 41.0494 61.9484 41.0174C61.9612 40.9408 61.9741 40.8706 61.987 40.7939C61.987 40.8259 61.9805 40.8642 61.9741 40.8961C61.9612 40.9919 61.9419 41.0941 61.929 41.1962Z" fill="#212226"/>
<path d="M62.0605 40.392C62.0605 40.392 62.0605 40.4048 62.0605 40.4111C62.0605 40.3537 62.0734 40.3026 62.0863 40.2451C62.0734 40.2898 62.067 40.3409 62.067 40.392H62.0605Z" fill="#212226"/>
<path d="M62.1757 39.7471C62.1564 39.8492 62.1371 39.9642 62.1113 40.0727L62.1306 39.9578C62.1435 39.8875 62.1564 39.8173 62.1757 39.7471Z" fill="#212226"/>
<path d="M91.9918 74.2349C91.9918 74.2349 91.9531 74.2412 91.9274 74.2412C91.8888 74.2412 91.8566 74.2412 91.8179 74.2412H91.6055C91.6763 74.2412 91.7471 74.2412 91.8179 74.2412C91.8759 74.2412 91.9338 74.2412 91.9918 74.2349Z" fill="#212226"/>
<path d="M93.7808 74.1136C93.7808 74.1136 93.7292 74.1199 93.7099 74.1263C93.6777 74.1263 93.6456 74.1263 93.6134 74.1263C93.5812 74.1327 93.5554 74.1327 93.5297 74.1327C93.4653 74.1391 93.4009 74.1455 93.3301 74.1455C93.4846 74.1391 93.6327 74.1199 93.7808 74.1072V74.1136Z" fill="#212226"/>
<path d="M94.5547 74.024C94.6062 74.0177 94.6641 74.0113 94.7156 74.0049C94.677 74.0049 94.6384 74.0177 94.5933 74.024H94.5547Z" fill="#212226"/>
<path d="M95.5326 73.8838C95.5 73.8838 95.4609 73.8967 95.4284 73.9032H95.4219C95.4609 73.8967 95.4935 73.8903 95.5326 73.8838Z" fill="#212226"/>
<path d="M96.5875 73.6919C96.4974 73.7111 96.4073 73.7302 96.3171 73.7494C96.2849 73.7558 96.2528 73.7621 96.2141 73.7685C96.1755 73.7749 96.1304 73.7813 96.0918 73.7877C96.2592 73.7558 96.4266 73.7238 96.5875 73.6919Z" fill="#212226"/>
<path d="M97.4172 73.5132C97.4172 73.5132 97.3979 73.5196 97.385 73.526C97.2756 73.5515 97.1725 73.5707 97.0631 73.5962C96.973 73.6154 96.8828 73.6345 96.7927 73.6537C96.7605 73.66 96.7347 73.6664 96.709 73.6664C96.9472 73.6217 97.179 73.5643 97.4172 73.5132Z" fill="#212226"/>
<path d="M99.2464 73.0281C99.1499 73.06 99.0533 73.0919 98.9503 73.1239C98.931 73.1239 98.9116 73.1239 98.8988 73.1366C98.7958 73.1686 98.6863 73.2005 98.5833 73.226C98.5318 73.2388 98.4803 73.2579 98.4288 73.2643C98.358 73.2835 98.2871 73.3026 98.2163 73.3218C98.1712 73.3346 98.1326 73.3474 98.0875 73.3601C97.9781 73.3857 97.8686 73.4112 97.7592 73.4367C97.7077 73.4495 97.6497 73.4623 97.5982 73.4751C97.5725 73.4814 97.5403 73.4878 97.5145 73.4942C97.4952 73.5006 97.4824 73.5006 97.463 73.507C97.4502 73.507 97.4373 73.5134 97.418 73.5134C97.6497 73.4559 97.888 73.3984 98.1197 73.341C98.2614 73.3027 98.4095 73.2643 98.5511 73.226C98.564 73.226 98.5704 73.226 98.5833 73.2196C98.6606 73.2005 98.7378 73.1813 98.8151 73.1558C98.9631 73.1111 99.1048 73.0728 99.2464 73.0281Z" fill="#212226"/>
<path d="M94.5517 74.024C94.6032 74.0177 94.6612 74.0113 94.7127 74.0049C94.6741 74.0049 94.6354 74.0177 94.5904 74.024C94.5646 74.024 94.5388 74.0304 94.5195 74.0304C94.5195 74.0304 94.5388 74.024 94.5517 74.024Z" fill="#212226"/>
<path d="M95.1788 73.9346C95.1337 73.9473 95.0886 73.9537 95.0436 73.9601C94.9856 73.9665 94.9212 73.9793 94.8633 73.9857C94.9727 73.9729 95.0757 73.9537 95.1788 73.9346Z" fill="#212226"/>
<path d="M95.5326 73.8838C95.5 73.8838 95.4609 73.8967 95.4284 73.9032H95.4219C95.4609 73.8967 95.4935 73.8903 95.5326 73.8838Z" fill="#212226"/>
<path d="M96.0827 73.7881V73.7965H96.0742L96.0827 73.7881Z" fill="#212226"/>
<path d="M97.4172 73.5132C97.4172 73.5132 97.3979 73.5196 97.385 73.526C97.2756 73.5515 97.1725 73.5707 97.0631 73.5962C96.973 73.6154 96.8828 73.6345 96.7927 73.6537C96.7605 73.66 96.7347 73.6664 96.709 73.6664C96.9472 73.6217 97.179 73.5643 97.4172 73.5132Z" fill="#212226"/>
<path d="M98.1197 73.3408C97.9974 73.3791 97.8815 73.4111 97.7592 73.4366C97.7077 73.4494 97.6497 73.4621 97.5982 73.4749C97.5725 73.4813 97.5403 73.4877 97.5145 73.4941C97.4952 73.5005 97.4824 73.5005 97.463 73.5068C97.4502 73.5068 97.4373 73.5132 97.418 73.5132C97.6497 73.4558 97.888 73.3983 98.1197 73.3408Z" fill="#212226"/>
<path d="M98.5505 73.2258C98.5119 73.245 98.4668 73.2514 98.4282 73.2641C98.3574 73.2833 98.2865 73.3025 98.2157 73.3216C98.1835 73.3344 98.1513 73.3408 98.1191 73.3408C98.2608 73.3025 98.4089 73.2641 98.5505 73.2258Z" fill="#212226"/>
<path d="M99.2478 73.0281C99.1512 73.06 99.0546 73.0919 98.9516 73.1239C98.9323 73.1239 98.913 73.1239 98.9001 73.1366C98.8679 73.143 98.8422 73.1494 98.8164 73.1558C98.9645 73.1111 99.1061 73.0728 99.2478 73.0281Z" fill="#212226"/>
<path d="M62.5571 38.1057C62.5056 38.2845 62.4605 38.4697 62.4219 38.6485C62.4348 38.5655 62.4541 38.4888 62.4734 38.4122C62.4991 38.31 62.5249 38.2079 62.5571 38.1057Z" fill="#212226"/>
<path d="M63.4707 35.2197C64.7584 31.7651 66.6963 28.5979 69.1621 25.8777C69.1879 25.8394 69.2265 25.8011 69.2587 25.7692C69.6128 25.3924 69.9733 25.0221 70.3403 24.6581C70.5528 24.4474 70.7717 24.2367 70.997 24.0323C71.2739 23.7769 71.5571 23.5279 71.8469 23.2789C72.1366 23.0362 72.4263 22.7936 72.7225 22.5637C73.0058 22.3466 73.289 22.1295 73.5723 21.9187H73.5788C73.611 21.8868 73.6431 21.8613 73.6753 21.8421C73.6882 21.8357 73.6946 21.8294 73.7075 21.823H73.714C73.9715 21.6314 74.229 21.4526 74.493 21.2738C74.5445 21.2355 74.5896 21.2036 74.6411 21.178C74.9308 20.9865 75.2334 20.7949 75.536 20.6097C75.6583 20.5267 75.7806 20.4565 75.9094 20.3862C76.0382 20.3096 76.1669 20.2394 76.2893 20.1691C76.3343 20.1308 76.3858 20.0989 76.4438 20.0797C76.4953 20.0414 76.5532 20.0095 76.6112 19.984C76.6434 19.9584 76.6756 19.9393 76.7142 19.9265C76.8365 19.8562 76.9588 19.7924 77.0876 19.7285C77.1069 19.7094 77.1262 19.6966 77.152 19.6966C77.3838 19.5625 77.6155 19.4476 77.8538 19.3326C78.0984 19.2049 78.3431 19.09 78.5877 18.9751C78.6521 18.9495 78.7165 18.9176 78.7873 18.8857C78.8646 18.8537 78.9483 18.8154 79.0384 18.7771C79.1414 18.7324 79.2444 18.6877 79.3474 18.643C79.4504 18.5983 79.5535 18.5536 79.6565 18.5089C79.708 18.4898 79.7659 18.4642 79.8239 18.4451C80.1587 18.311 80.4934 18.1769 80.8347 18.0555C81.1759 17.9342 81.5171 17.8129 81.8648 17.7043L81.8712 17.7171C73.4114 20.4692 66.5933 26.976 63.4707 35.2197Z" fill="#212226"/>
<path d="M112.112 65.1673C112.112 65.1673 112.086 65.1992 112.067 65.212C111.97 65.3205 111.867 65.4227 111.764 65.5248C111.616 65.6781 111.468 65.825 111.313 65.9718C111.23 66.0548 111.14 66.1442 111.049 66.2272C110.966 66.3039 110.882 66.3869 110.792 66.4635C110.418 66.8147 110.026 67.1595 109.627 67.4852C109.543 67.5554 109.459 67.6257 109.369 67.6959C109.337 67.7278 109.305 67.7534 109.272 67.7789C109.208 67.83 109.144 67.8811 109.079 67.9322C108.912 68.0663 108.738 68.2004 108.558 68.3344C108.32 68.5132 108.081 68.692 107.837 68.8644C107.759 68.9219 107.676 68.9794 107.592 69.0368C107.534 69.0752 107.483 69.1135 107.425 69.1454C107.335 69.2093 107.238 69.2731 107.148 69.337C107.103 69.3689 107.058 69.3944 107.013 69.4264C107 69.4327 106.987 69.4391 106.98 69.4455C106.768 69.586 106.556 69.7265 106.337 69.8542C106.131 69.9819 105.925 70.1096 105.712 70.2309C105.583 70.3076 105.455 70.3778 105.326 70.4544C105.249 70.4991 105.165 70.5438 105.081 70.5885C104.985 70.646 104.888 70.6971 104.785 70.7545C104.688 70.8056 104.585 70.8567 104.482 70.9078C104.444 70.9333 104.412 70.9525 104.373 70.9653C104.173 71.0738 103.974 71.176 103.768 71.2718C103.33 71.4889 102.879 71.6932 102.429 71.8848C102.223 71.9742 102.023 72.0572 101.811 72.1402C101.791 72.1466 101.765 72.1593 101.746 72.1657C101.527 72.2551 101.308 72.3381 101.083 72.4275C101.064 72.4339 101.044 72.4403 101.025 72.4467C100.838 72.5105 100.645 72.5808 100.458 72.651C100.394 72.6702 100.33 72.6957 100.259 72.7149C100.233 72.7213 100.207 72.734 100.182 72.734C100.407 72.6574 100.632 72.5744 100.858 72.4914C101.16 72.3764 101.463 72.2615 101.765 72.1402C101.959 72.0636 102.145 71.9869 102.332 71.9039C102.635 71.7762 102.931 71.6421 103.227 71.508C103.478 71.3867 103.729 71.259 103.98 71.1377C104.231 71.01 104.482 70.8822 104.733 70.7418C104.753 70.729 104.772 70.7226 104.791 70.7098C105.403 70.3778 105.995 70.0266 106.575 69.6498C106.729 69.5605 106.877 69.4583 107.019 69.3625C107.219 69.2348 107.412 69.1007 107.605 68.9602C107.792 68.8325 107.978 68.6984 108.165 68.5643C108.229 68.5132 108.287 68.4685 108.352 68.4238C108.558 68.2706 108.757 68.1173 108.957 67.9577C109.021 67.913 109.079 67.8619 109.144 67.8108C109.195 67.7661 109.247 67.7278 109.298 67.6831C109.311 67.6767 109.318 67.664 109.33 67.6512C109.395 67.6065 109.459 67.5554 109.517 67.5107C109.569 67.4724 109.62 67.4277 109.672 67.383C109.71 67.3511 109.749 67.3192 109.788 67.2745C109.8 67.2745 109.813 67.2617 109.82 67.2489C109.845 67.2361 109.865 67.2106 109.891 67.1915C109.948 67.1404 110.006 67.0893 110.064 67.0446C110.077 67.0254 110.09 67.019 110.103 67.0063C110.154 66.9743 110.2 66.9296 110.251 66.8786C110.367 66.77 110.483 66.6678 110.599 66.5657L110.682 66.4827C110.747 66.4252 110.811 66.3677 110.876 66.3103C110.908 66.2783 110.946 66.24 110.979 66.2081C111.011 66.1762 111.049 66.1379 111.082 66.1059C111.101 66.0868 111.127 66.0612 111.146 66.0484C111.191 66.0038 111.236 65.9591 111.281 65.9144C111.397 65.8058 111.513 65.6909 111.622 65.5759C111.629 65.5695 111.635 65.5632 111.642 65.5568C111.783 65.4163 111.925 65.2694 112.067 65.1226L112.099 65.1673H112.105H112.112Z" fill="#212226"/>
<path d="M86.9238 73.9985C87.059 74.0177 87.2007 74.0368 87.3359 74.0496C87.2071 74.0368 87.0783 74.0177 86.956 74.0049C86.9431 74.0049 86.9367 74.0049 86.9238 73.9985Z" fill="#212226"/>
<path d="M87.6128 74.0815H87.5999C87.5098 74.0687 87.4261 74.0623 87.3359 74.0496C87.4261 74.0623 87.5226 74.0687 87.6128 74.0815Z" fill="#212226"/>
<path d="M91.9918 74.2349C91.9918 74.2349 91.9531 74.2412 91.9274 74.2412C91.8888 74.2412 91.8566 74.2412 91.8179 74.2412H91.6055C91.6763 74.2412 91.7471 74.2412 91.8179 74.2412C91.8759 74.2412 91.9338 74.2412 91.9918 74.2349Z" fill="#212226"/>
<path d="M93.3307 74.1519C93.2599 74.1646 93.1826 74.171 93.1053 74.1774C93.0023 74.1838 92.8993 74.1902 92.8027 74.1966C92.9057 74.1902 93.0023 74.1838 93.1053 74.171C93.1826 74.171 93.2534 74.171 93.3307 74.1519Z" fill="#212226"/>
<path d="M96.0827 73.7881V73.7965H96.0742L96.0827 73.7881Z" fill="#212226"/>
<path d="M112.066 65.1228C111.847 65.3463 111.628 65.5698 111.403 65.7869C111.364 65.8316 111.319 65.8763 111.281 65.9146C111.236 65.9593 111.191 66.004 111.146 66.0487C111.126 66.0615 111.1 66.0871 111.081 66.1062C111.049 66.1381 111.01 66.1764 110.978 66.2084C110.882 66.2978 110.779 66.3872 110.682 66.483L110.598 66.566C110.482 66.6681 110.367 66.7703 110.251 66.8788C110.199 66.9299 110.154 66.9746 110.103 67.0066C110.09 67.0193 110.077 67.0257 110.064 67.0449C110.006 67.0896 109.948 67.1407 109.89 67.1917C109.864 67.2109 109.845 67.2364 109.819 67.2492C109.819 67.262 109.8 67.2684 109.787 67.2748C109.639 67.4088 109.484 67.5366 109.33 67.6515C109.317 67.6643 109.311 67.677 109.298 67.6834C109.246 67.7281 109.195 67.7664 109.143 67.8111C109.079 67.8622 109.021 67.9133 108.957 67.958C108.757 68.1176 108.557 68.2709 108.351 68.4241C108.287 68.4688 108.229 68.5135 108.165 68.5646C107.978 68.6987 107.791 68.8328 107.604 68.9605C107.411 69.101 107.218 69.2351 107.019 69.3628C106.871 69.4586 106.722 69.5607 106.574 69.6501C105.995 70.0269 105.403 70.3781 104.791 70.7101C104.772 70.7229 104.752 70.7293 104.733 70.7421C104.482 70.8825 104.231 71.0102 103.98 71.1379C103.729 71.2593 103.478 71.387 103.226 71.5083C102.93 71.6424 102.634 71.7765 102.332 71.9042C102.145 71.9872 101.958 72.0638 101.765 72.1405C101.462 72.2618 101.16 72.3767 100.857 72.4917C100.458 72.6385 100.052 72.7726 99.6468 72.9067C99.621 72.9131 99.5953 72.9259 99.5695 72.9323C99.5502 72.9386 99.5309 72.945 99.5052 72.9514C99.4215 72.977 99.3378 73.0025 99.2476 73.028C99.106 73.0727 98.9643 73.1111 98.8163 73.1558C98.739 73.1813 98.6617 73.2005 98.5845 73.2196C98.5716 73.226 98.5652 73.226 98.5523 73.226C98.4107 73.2643 98.2626 73.3026 98.1209 73.3409C97.8892 73.3984 97.6509 73.4559 97.4192 73.5133C97.181 73.5644 96.9492 73.6219 96.711 73.6666C96.6723 73.673 96.6273 73.6857 96.5886 73.6921C96.4277 73.7241 96.2603 73.756 96.0929 73.7879H96.0736C96.0736 73.7879 96.0671 73.7943 96.0607 73.7943C96.0414 73.7943 96.0156 73.8007 95.9963 73.8071C95.9834 73.8071 95.9706 73.8071 95.9577 73.8071C95.816 73.8326 95.6744 73.8582 95.5328 73.8773C95.4941 73.8773 95.4619 73.8901 95.4233 73.8965C95.3911 73.9029 95.3589 73.9092 95.3267 73.9092C95.2752 73.9156 95.2302 73.9284 95.1787 73.9284C95.0756 73.9476 94.9726 73.9667 94.8632 73.9795C94.8374 73.9859 94.8052 73.9859 94.7795 73.9923C94.7602 73.9986 94.7409 73.9986 94.7215 73.9986H94.7151C94.6636 73.9986 94.6056 74.0114 94.5541 74.0178C94.5413 74.0178 94.5284 74.0242 94.522 74.0242C94.4125 74.0433 94.2966 74.0561 94.1872 74.0625C94.0777 74.0753 93.9683 74.088 93.8524 74.1008H93.8202C93.8202 74.1008 93.7944 74.1072 93.7816 74.1072C93.6335 74.12 93.4854 74.1391 93.3309 74.1455C93.2536 74.1583 93.1828 74.1647 93.1055 74.1647C93.0025 74.1774 92.906 74.1838 92.8029 74.1902C92.7643 74.1966 92.7257 74.1966 92.6935 74.1966C92.6355 74.1966 92.584 74.1966 92.5325 74.1966C92.5068 74.203 92.481 74.203 92.4553 74.203C92.4231 74.2094 92.3909 74.2094 92.3587 74.2094C92.3587 74.2157 92.3458 74.2094 92.3458 74.2094C92.2299 74.2157 92.114 74.2221 91.9917 74.2221C91.9338 74.2285 91.8758 74.2285 91.8179 74.2285C91.7471 74.2285 91.6762 74.2285 91.6054 74.2285C91.3543 74.2349 91.1032 74.2413 90.8521 74.2413C90.5238 74.2413 90.1954 74.2349 89.8735 74.2221C89.6997 74.2221 89.5259 74.2094 89.3585 74.203C89.1074 74.1902 88.8627 74.1774 88.6181 74.1583H88.6052C88.5537 74.1519 88.4893 74.1455 88.4378 74.1391C88.3734 74.1391 88.3155 74.1327 88.2511 74.1263C88.1288 74.1136 88.0064 74.1008 87.8841 74.088C87.5622 74.0561 87.2403 74.0178 86.9248 73.9795C86.5128 73.922 86.1072 73.8582 85.708 73.7879C85.6951 73.7879 85.6822 73.7815 85.6694 73.7815L86.12 71.304C81.9287 70.5569 78.0786 68.8456 74.8145 66.4063L77.7567 62.5303L77.776 62.4984L79.5144 60.2124C81.8257 61.9429 84.5427 63.1561 87.5043 63.6733C88.5923 63.8713 89.7126 63.9735 90.8521 63.9735C91.0582 63.9735 91.2706 63.9735 91.4767 63.9543L91.5732 66.8597C91.8951 66.8469 92.2171 66.8341 92.5325 66.8086C92.8931 66.7831 93.2536 66.7448 93.6077 66.7001C93.788 66.6745 93.9683 66.649 94.1485 66.6234C99.0609 65.8891 103.439 63.5137 106.703 60.0847L110.257 63.4179L112.066 65.1037V65.1228Z" fill="#212226"/>
<path d="M94.8633 73.9857C94.9727 73.9729 95.0757 73.9537 95.1788 73.9346C95.1337 73.9473 95.0886 73.9537 95.0436 73.9601C94.9856 73.9665 94.9212 73.9793 94.8633 73.9857Z" fill="#212226"/>
<path d="M109.33 67.6514C109.485 67.5365 109.639 67.4088 109.787 67.2747C109.749 67.313 109.71 67.3449 109.671 67.3832C109.62 67.4279 109.568 67.4726 109.517 67.5109C109.459 67.5556 109.394 67.6067 109.33 67.6514Z" fill="#212226"/>
<path d="M110.682 66.4831C110.778 66.3873 110.881 66.2979 110.978 66.2085C110.946 66.2404 110.907 66.2787 110.875 66.3107C110.81 66.3681 110.746 66.4256 110.682 66.4831Z" fill="#212226"/>
<path d="M112.067 65.1226C111.925 65.2694 111.783 65.4163 111.642 65.5568C111.635 65.5632 111.629 65.5695 111.622 65.5759C111.513 65.6909 111.397 65.8058 111.281 65.9144C111.32 65.876 111.365 65.8314 111.404 65.7867C111.629 65.5695 111.848 65.346 112.067 65.1226Z" fill="#212226"/>
<path d="M92.3443 74.2222C92.2027 74.235 92.0675 74.2414 91.9259 74.2414C91.8872 74.2414 91.855 74.2414 91.8164 74.2414C91.8744 74.2414 91.9323 74.2414 91.9902 74.2286C92.1126 74.2286 92.2285 74.2222 92.3443 74.2158V74.2222Z" fill="#212226"/>
<path d="M92.5323 74.2092C92.5838 74.2092 92.6354 74.2092 92.6933 74.2092C92.6611 74.2092 92.6289 74.2092 92.6032 74.2092C92.5517 74.2156 92.5001 74.2156 92.4551 74.2156C92.4808 74.2156 92.5066 74.2156 92.5323 74.2092Z" fill="#212226"/>
<path d="M93.7813 74.1136C93.7813 74.1136 93.7298 74.1199 93.7105 74.1263C93.6783 74.1263 93.6461 74.1263 93.614 74.1263C93.5818 74.1327 93.556 74.1327 93.5303 74.1327C93.3886 74.1455 93.247 74.1583 93.1053 74.171C93.0023 74.1774 92.8993 74.1838 92.8027 74.1902C92.9057 74.1838 93.0023 74.1774 93.1053 74.1646C93.1826 74.1646 93.2534 74.1646 93.3307 74.1455C93.4852 74.1391 93.6333 74.1199 93.7813 74.1072V74.1136Z" fill="#212226"/>
<path d="M93.8206 74.1072H93.8535L93.8403 74.1137H93.7812C93.7812 74.1137 93.8075 74.1137 93.8206 74.1072Z" fill="#212226"/>
<path d="M94.1883 74.0686C94.1239 74.0814 94.066 74.0878 94.0016 74.0941C93.9501 74.1005 93.8986 74.1069 93.8535 74.1069C93.9694 74.0941 94.0789 74.0814 94.1883 74.0686Z" fill="#212226"/>
<path d="M94.7191 74.0049C94.7191 74.0049 94.6934 74.0049 94.6805 74.0177C94.6483 74.0177 94.6225 74.0177 94.5904 74.024C94.5839 74.024 94.5775 74.024 94.571 74.0304H94.5195C94.5195 74.0304 94.5388 74.024 94.5517 74.024C94.6032 74.0177 94.6612 74.0113 94.7127 74.0049H94.7191Z" fill="#212226"/>
<path d="M95.5326 73.8838C95.5 73.8838 95.4609 73.8967 95.4284 73.9032H95.4219C95.4609 73.8967 95.4935 73.8903 95.5326 73.8838Z" fill="#212226"/>
<path d="M96.0618 73.7944H96.0749C96.0749 73.7944 96.0421 73.801 96.0224 73.8075H95.9961C95.9961 73.8075 96.0421 73.7944 96.0618 73.7944Z" fill="#212226"/>
<path d="M96.0935 73.7877C96.2609 73.7558 96.4283 73.7238 96.5893 73.6919C96.4991 73.7111 96.409 73.7302 96.3189 73.7494C96.2867 73.7558 96.2545 73.7621 96.2159 73.7685C96.1708 73.7749 96.1257 73.7813 96.0807 73.7941C96.0807 73.7941 96.0871 73.7877 96.0935 73.7877Z" fill="#212226"/>
<path d="M98.5535 73.2258C98.5149 73.245 98.4698 73.2514 98.4312 73.2641C98.3604 73.2833 98.2895 73.3025 98.2187 73.3216C98.0642 73.3599 97.9161 73.3982 97.7616 73.4366C97.7101 73.4493 97.6522 73.4621 97.6006 73.4749C97.5749 73.4812 97.5427 73.4876 97.517 73.494C97.4976 73.5004 97.4848 73.5004 97.4654 73.5068C97.4397 73.5132 97.4139 73.5196 97.3882 73.5259C97.2787 73.5515 97.1757 73.5706 97.0663 73.5962C96.9761 73.6153 96.886 73.6345 96.7959 73.6537C96.7315 73.6664 96.6607 73.6792 96.5898 73.692C96.6285 73.692 96.6735 73.6728 96.7122 73.6664C96.9504 73.6217 97.1822 73.5643 97.4204 73.5132C97.6522 73.4557 97.8904 73.3982 98.1222 73.3408C98.2638 73.3025 98.4119 73.2641 98.5535 73.2258Z" fill="#212226"/>
<path d="M99.2478 73.0281C99.1512 73.06 99.0546 73.0919 98.9516 73.1239C98.9323 73.1239 98.913 73.1239 98.9001 73.1366C98.8679 73.143 98.8422 73.1494 98.8164 73.1558C98.9645 73.1111 99.1061 73.0728 99.2478 73.0281Z" fill="#212226"/>
<path d="M105.151 28.9748L103.233 31.1586L101.153 33.534C99.9234 32.4676 98.5198 31.5928 97.0004 30.9607C96.8008 30.8649 96.6077 30.7883 96.4081 30.718C96.1956 30.6414 95.9832 30.5648 95.7707 30.4945C95.6999 30.469 95.6291 30.4434 95.5582 30.4243C95.3007 30.3413 95.0367 30.271 94.7728 30.2008C93.5173 29.8815 92.2039 29.7091 90.8519 29.7091C90.5622 29.7091 90.2789 29.7155 89.9956 29.7346C89.7123 29.7474 89.4355 29.773 89.1522 29.8049C89.1329 29.8049 89.12 29.8049 89.1007 29.8113C88.8303 29.8368 88.5599 29.8751 88.2959 29.9198C88.0384 29.9581 87.7808 30.0092 87.5297 30.0667C87.4525 30.0795 87.3752 30.0986 87.298 30.1178C87.1113 30.1561 86.9245 30.2008 86.7378 30.2583C86.6541 30.271 86.5704 30.2966 86.4867 30.3285C86.3837 30.354 86.2807 30.3796 86.1777 30.4179C86.1262 30.4307 86.0747 30.4434 86.0232 30.4626C85.9524 30.4881 85.8815 30.5137 85.8043 30.5392C85.5468 30.6222 85.2892 30.718 85.0317 30.8202C85.0124 30.8202 84.9931 30.8329 84.9738 30.8457C84.7162 30.9415 84.4587 31.0501 84.214 31.1714L85.1669 33.1956L86.6348 36.3181C84.536 37.2886 82.8363 38.968 81.8383 41.0433C81.6387 41.4647 81.4713 41.9053 81.3361 42.3523C81.2911 42.512 81.246 42.6652 81.2009 42.8248C81.1172 43.1377 81.0529 43.457 81.0014 43.7763C80.9627 44.0317 80.9305 44.2935 80.9177 44.5553C80.8919 44.7916 80.8855 45.0406 80.8855 45.2832C80.8855 45.5067 80.8855 45.7302 80.9112 45.9473C80.9177 46.1453 80.937 46.3368 80.9692 46.5284C80.9692 46.5731 80.9756 46.6242 80.9885 46.6689C81.04 47.0903 81.1301 47.5054 81.246 47.9077C81.304 48.1184 81.3683 48.3355 81.4456 48.5398C81.6001 49.006 81.7997 49.4593 82.0379 49.8936L78.9604 51.5027C79.8875 53.2459 81.1945 54.7593 82.7719 55.9342L81.4134 57.7221L79.5141 60.2316C77.2994 58.5842 75.4645 56.4578 74.1704 54.0122L76.9646 52.5499C75.8121 50.3788 75.1554 47.9077 75.1554 45.2832C75.1554 44.9001 75.1683 44.517 75.2005 44.1402C75.3421 42.1735 75.8507 40.309 76.662 38.6104L73.8034 37.2631L71.1895 36.0371C73.7519 30.718 78.4518 26.5802 84.1561 24.7284C85.0768 24.4283 86.0296 24.1857 86.9954 24.0069C87.0018 24.0133 87.0082 24.0069 87.0147 24.0069C87.195 23.975 87.3752 23.9494 87.5555 23.9175C87.7358 23.8919 87.9096 23.8664 88.0963 23.8409C88.4504 23.7962 88.811 23.7579 89.1715 23.7323C89.7252 23.6876 90.2853 23.6685 90.8519 23.6685C91.1416 23.6685 91.4249 23.6748 91.7146 23.6876C91.7983 23.6876 91.882 23.694 91.9721 23.694C92.249 23.7132 92.5323 23.7323 92.8091 23.7579C93.1825 23.7898 93.5495 23.8345 93.9229 23.8856C94.2706 23.9366 94.6118 23.9941 94.9595 24.058C95.3393 24.1282 95.7128 24.2112 96.0926 24.3006C96.5691 24.4219 97.039 24.556 97.509 24.7093C97.9082 24.8306 98.3009 24.9711 98.6937 25.118C98.9705 25.2265 99.2538 25.3351 99.5242 25.4564C99.6143 25.4947 99.698 25.533 99.7817 25.5713C100.02 25.6735 100.258 25.7884 100.49 25.9034C100.709 26.0055 100.921 26.1141 101.134 26.229C101.423 26.3823 101.707 26.5419 101.984 26.7016C102.19 26.8229 102.396 26.9506 102.595 27.0783C102.685 27.1358 102.769 27.1932 102.853 27.2443C103.11 27.4103 103.361 27.5891 103.613 27.7679C103.851 27.9339 104.076 28.1064 104.308 28.2788C104.359 28.3235 104.417 28.3682 104.475 28.4129C104.688 28.5853 104.9 28.7577 105.106 28.9365C105.119 28.9492 105.138 28.962 105.151 28.9748Z" fill="#212226"/>
<path d="M108.957 67.958C108.86 68.041 108.757 68.1176 108.654 68.2007C108.558 68.2773 108.455 68.3539 108.352 68.4241C108.558 68.2709 108.757 68.1176 108.957 67.958Z" fill="#212226"/>
<path d="M109.329 67.6514C109.484 67.5365 109.638 67.4088 109.786 67.2747C109.748 67.313 109.709 67.3449 109.67 67.3832C109.619 67.4279 109.567 67.4726 109.516 67.5109C109.445 67.5748 109.374 67.6322 109.297 67.6833C109.31 67.6769 109.316 67.6642 109.329 67.6514Z" fill="#212226"/>
<path d="M110.979 66.2085C110.947 66.2404 110.909 66.2787 110.876 66.3107C110.786 66.4001 110.696 66.4895 110.6 66.5661L110.683 66.4831C110.78 66.3873 110.883 66.2979 110.979 66.2085Z" fill="#212226"/>
<path d="M112.639 45.2833V45.3216H109.722V45.2833C109.722 44.2233 109.632 43.1825 109.458 42.1672C108.724 37.7996 106.464 33.9427 103.232 31.1587L105.151 28.9749C108.872 32.1867 111.486 36.6374 112.336 41.6819C112.536 42.8505 112.639 44.0573 112.639 45.2833Z" fill="#212226"/>
<path d="M104.579 58.1183C101.276 61.592 96.6406 63.8141 91.4772 63.9738L91.3741 60.8385L91.2969 58.6036C94.9731 58.4886 98.2824 56.9114 100.632 54.4275L102.274 55.9664L104.579 58.1183Z" fill="#212226"/>
<path d="M100.825 45.3023C100.819 47.2882 100.227 49.1272 99.2095 50.6725C98.8876 51.1706 98.5142 51.6367 98.1021 52.0645L93.7949 48.0353C93.9688 47.8629 94.1168 47.6713 94.2456 47.4734C94.6641 46.8476 94.9087 46.0941 94.9087 45.2896L100.825 45.3023Z" fill="#212226"/>
<path d="M82.6431 20.0991C72.5221 23.3429 65.0473 32.423 64.249 43.3421L61.7188 43.157C61.7188 43.0995 61.7252 43.0356 61.7316 42.9718C61.7316 42.9718 61.7252 42.9526 61.7316 42.9462C61.7509 42.6972 61.7703 42.4482 61.8024 42.1991C61.8024 42.1417 61.8089 42.0842 61.8218 42.0267C61.8282 41.9629 61.8346 41.899 61.8475 41.8352C61.8475 41.8224 61.8475 41.8096 61.8475 41.7969C61.8475 41.733 61.854 41.6692 61.8668 41.6117C61.8797 41.4712 61.899 41.3307 61.9248 41.1966C61.9377 41.0945 61.957 40.9923 61.9698 40.8965C61.9763 40.8646 61.9827 40.8263 61.9827 40.7943C62.002 40.6666 62.0213 40.5517 62.0407 40.4304C62.0407 40.424 62.0407 40.4176 62.0471 40.4112C62.0471 40.4048 62.0471 40.3984 62.0471 40.3921C62.0471 40.341 62.0535 40.2899 62.0664 40.2452C62.0729 40.226 62.0729 40.2069 62.0793 40.1877C62.0793 40.1813 62.0793 40.1686 62.0793 40.1622C62.0793 40.1303 62.0857 40.0983 62.0922 40.0728C62.1179 39.9642 62.1372 39.8493 62.1565 39.7471C62.1694 39.6513 62.1887 39.5619 62.2145 39.4726C62.2724 39.198 62.3304 38.9234 62.4012 38.6488C62.4398 38.47 62.4849 38.2849 62.5364 38.1061C62.5944 37.8634 62.6652 37.6271 62.7296 37.3845C62.7296 37.359 62.736 37.3334 62.7489 37.3079C62.8326 37.0461 62.9163 36.7779 63 36.5161C63.0515 36.3564 63.103 36.1904 63.1609 36.0308C63.2575 35.7562 63.3541 35.488 63.4506 35.2198C66.5732 26.9762 73.3913 20.4694 81.8512 17.7173L82.6238 20.0991H82.6431Z" fill="#212226"/>
<path d="M61.7148 43.1569C61.7213 43.093 61.7213 43.0355 61.7342 42.9717C61.7277 43.0355 61.7213 43.0994 61.7213 43.1569H61.7148Z" fill="#212226"/>
<path d="M61.949 41.0174C61.9619 40.9408 61.9748 40.8706 61.9876 40.7939C61.9876 40.8259 61.9812 40.8642 61.9748 40.8961C61.9619 40.9919 61.9426 41.0941 61.9297 41.1962C61.9297 41.1707 61.9297 41.1451 61.9297 41.126C61.9297 41.0877 61.9361 41.0494 61.9426 41.0174H61.949Z" fill="#212226"/>
<path d="M62.1306 39.9578C62.1435 39.8875 62.1564 39.8173 62.1757 39.7471C62.1564 39.8492 62.1371 39.9642 62.1113 40.0727L62.1306 39.9578Z" fill="#212226"/>
<path d="M62.6078 37.857C62.6529 37.6974 62.6979 37.5442 62.7494 37.3845C62.6851 37.6272 62.6142 37.8634 62.5563 38.1061C62.5048 38.2849 62.4597 38.4701 62.4211 38.6488C62.3503 38.9234 62.2923 39.198 62.2344 39.4726C62.2988 39.115 62.3825 38.7638 62.4726 38.4126C62.5112 38.2274 62.5563 38.0422 62.6078 37.857Z" fill="#212226"/>
<path d="M63.4694 35.2197C63.3728 35.4879 63.2762 35.756 63.1796 36.0306C63.1217 36.1903 63.0702 36.3563 63.0187 36.5159C62.935 36.7777 62.8513 37.0459 62.7676 37.3077C62.8384 37.0587 62.9092 36.8033 62.9865 36.5606C63.0637 36.3116 63.1474 36.0625 63.2311 35.8135C63.3535 35.4815 63.4758 35.143 63.6046 34.811C63.7076 34.5364 63.8235 34.2682 63.9329 34C64.2484 33.2721 64.5896 32.5569 64.9566 31.8545C65.1175 31.548 65.2849 31.2479 65.4523 30.9542C65.6326 30.6413 65.8193 30.3348 66.006 30.0283C66.2056 29.709 66.4181 29.3897 66.6241 29.0769C66.7979 28.8342 66.9653 28.5916 67.1392 28.3553C67.3774 28.0232 67.622 27.704 67.8731 27.3847C68.0985 27.1037 68.3238 26.8228 68.562 26.5482C68.7552 26.3247 68.9547 26.1012 69.1608 25.8777C69.1865 25.8394 69.2251 25.8011 69.2573 25.7692C69.2895 25.7309 69.3217 25.6926 69.3539 25.6542C69.5728 25.418 69.7917 25.1881 70.0235 24.9582C70.1265 24.8497 70.2295 24.7475 70.339 24.6581C70.487 24.4985 70.6416 24.3516 70.7961 24.2111C70.8412 24.1664 70.8798 24.1281 70.9248 24.0898C70.9506 24.0707 70.9699 24.0515 70.9957 24.0323C71.0922 23.9366 71.1888 23.8408 71.2918 23.7514C71.3884 23.662 71.4914 23.5726 71.5944 23.4896C71.6781 23.4129 71.7618 23.3427 71.8455 23.2789C71.897 23.2342 71.9485 23.1831 72 23.1384C72.1352 23.0234 72.2769 22.9085 72.4185 22.7936C72.47 22.7552 72.5151 22.7169 72.5666 22.6786C72.6181 22.6403 72.6696 22.602 72.7211 22.5637C72.734 22.5509 72.7404 22.5381 72.7533 22.5318C72.7855 22.4998 72.8177 22.4807 72.8434 22.4615C72.9851 22.353 73.1267 22.2444 73.2684 22.1359C73.3649 22.0592 73.468 21.989 73.571 21.9187H73.5774C73.6096 21.8868 73.6418 21.8613 73.674 21.8421C73.6869 21.8357 73.6933 21.8294 73.7062 21.823H73.7126C73.8543 21.708 73.9959 21.6059 74.1375 21.5101C74.2534 21.4271 74.3693 21.3504 74.4916 21.2738C74.5431 21.2355 74.5882 21.2036 74.6397 21.178C74.9294 20.9865 75.232 20.7949 75.5346 20.6097C75.657 20.5267 75.7793 20.4565 75.9081 20.3862C76.0368 20.3096 76.1656 20.2394 76.2879 20.1691C76.333 20.1308 76.3845 20.0989 76.4424 20.0797C76.4939 20.0414 76.5519 20.0095 76.6098 19.984C76.642 19.9584 76.6742 19.9393 76.7128 19.9265C76.8352 19.8562 76.9575 19.7924 77.0863 19.7285C77.1056 19.7094 77.1249 19.6966 77.1506 19.6966C77.3824 19.5625 77.6142 19.4476 77.8524 19.3326C78.1614 19.1794 78.4705 19.0325 78.786 18.8857C78.8632 18.8537 78.9469 18.8154 79.0371 18.7771C79.1401 18.7324 79.2431 18.6877 79.3461 18.643C79.5006 18.5792 79.6616 18.5089 79.8225 18.4451C80.1573 18.311 80.4921 18.1769 80.8333 18.0555C81.1745 17.9342 81.5158 17.8129 81.8634 17.7043L81.8699 17.7171C73.41 20.4692 66.5919 26.976 63.4694 35.2197Z" fill="#212226"/>
<ellipse cx="124.742" cy="30.1053" rx="8.22472" ry="8.21053" fill="#212226"/>
<ellipse cx="58.9439" cy="58.1579" rx="6.16854" ry="6.15789" fill="#212226"/>
<ellipse cx="124.742" cy="30.1053" rx="8.22472" ry="8.21053" fill="#212226"/>
<ellipse cx="58.9439" cy="58.1579" rx="6.16854" ry="6.15789" fill="#212226"/>
</svg>
